<mxfile host="app.diagrams.net" agent="Mozilla/5.0 (Macintosh; Intel Mac OS X 10_15_7) AppleWebKit/537.36 (KHTML, like Gecko) Chrome/127.0.0.0 Safari/537.36" version="24.7.7">
  <diagram name="페이지-1" id="bU6yg6dmT5lOKHXtBOS7">
    <mxGraphModel dx="954" dy="640" grid="1" gridSize="10" guides="1" tooltips="1" connect="1" arrows="1" fold="1" page="1" pageScale="1" pageWidth="827" pageHeight="1169" math="0" shadow="0">
      <root>
        <mxCell id="0" />
        <mxCell id="1" parent="0" />
        <mxCell id="iSMBCSXNsCC7iIjNtbEA-33" value="게시판 시스템" style="swimlane;whiteSpace=wrap;html=1;" vertex="1" parent="1">
          <mxGeometry x="110" y="140" width="600" height="460" as="geometry" />
        </mxCell>
        <mxCell id="iSMBCSXNsCC7iIjNtbEA-5" value="게시글 작성" style="rounded=1;whiteSpace=wrap;html=1;arcSize=50;fillColor=#d5e8d4;strokeColor=#82b366;" vertex="1" parent="iSMBCSXNsCC7iIjNtbEA-33">
          <mxGeometry x="60" y="190" width="120" height="30" as="geometry" />
        </mxCell>
        <mxCell id="iSMBCSXNsCC7iIjNtbEA-8" value="게시글 목록 조회" style="rounded=1;whiteSpace=wrap;html=1;arcSize=50;fillColor=#d5e8d4;strokeColor=#82b366;" vertex="1" parent="iSMBCSXNsCC7iIjNtbEA-33">
          <mxGeometry x="60" y="350" width="120" height="30" as="geometry" />
        </mxCell>
        <mxCell id="iSMBCSXNsCC7iIjNtbEA-10" value="댓글 작성" style="rounded=1;whiteSpace=wrap;html=1;arcSize=50;fillColor=#d5e8d4;strokeColor=#82b366;" vertex="1" parent="iSMBCSXNsCC7iIjNtbEA-33">
          <mxGeometry x="470" y="310" width="120" height="30" as="geometry" />
        </mxCell>
        <mxCell id="iSMBCSXNsCC7iIjNtbEA-12" value="댓글 삭제" style="rounded=1;whiteSpace=wrap;html=1;arcSize=50;fillColor=#d5e8d4;strokeColor=#82b366;" vertex="1" parent="iSMBCSXNsCC7iIjNtbEA-33">
          <mxGeometry x="470" y="420" width="120" height="30" as="geometry" />
        </mxCell>
        <mxCell id="iSMBCSXNsCC7iIjNtbEA-11" value="댓글 수정" style="rounded=1;whiteSpace=wrap;html=1;arcSize=50;fillColor=#d5e8d4;strokeColor=#82b366;" vertex="1" parent="iSMBCSXNsCC7iIjNtbEA-33">
          <mxGeometry x="320" y="420" width="120" height="30" as="geometry" />
        </mxCell>
        <mxCell id="iSMBCSXNsCC7iIjNtbEA-28" value="≪extend≫" style="html=1;verticalAlign=bottom;endArrow=open;dashed=1;endSize=8;curved=0;rounded=0;exitX=0.5;exitY=0;exitDx=0;exitDy=0;entryX=0.25;entryY=1;entryDx=0;entryDy=0;" edge="1" parent="iSMBCSXNsCC7iIjNtbEA-33" source="iSMBCSXNsCC7iIjNtbEA-11" target="iSMBCSXNsCC7iIjNtbEA-10">
          <mxGeometry relative="1" as="geometry">
            <mxPoint x="10" y="454.5" as="sourcePoint" />
            <mxPoint x="-70" y="454.5" as="targetPoint" />
          </mxGeometry>
        </mxCell>
        <mxCell id="iSMBCSXNsCC7iIjNtbEA-25" value="≪extend≫" style="html=1;verticalAlign=bottom;endArrow=open;dashed=1;endSize=8;curved=0;rounded=0;entryX=0.65;entryY=1.067;entryDx=0;entryDy=0;entryPerimeter=0;exitX=0.442;exitY=-0.1;exitDx=0;exitDy=0;exitPerimeter=0;" edge="1" parent="iSMBCSXNsCC7iIjNtbEA-33" source="iSMBCSXNsCC7iIjNtbEA-12" target="iSMBCSXNsCC7iIjNtbEA-10">
          <mxGeometry relative="1" as="geometry">
            <mxPoint x="520" y="400" as="sourcePoint" />
            <mxPoint x="-70" y="454.5" as="targetPoint" />
          </mxGeometry>
        </mxCell>
        <mxCell id="iSMBCSXNsCC7iIjNtbEA-4" value="회원가입" style="rounded=1;whiteSpace=wrap;html=1;arcSize=50;fillColor=#d5e8d4;strokeColor=#82b366;" vertex="1" parent="iSMBCSXNsCC7iIjNtbEA-33">
          <mxGeometry x="60" y="80" width="120" height="30" as="geometry" />
        </mxCell>
        <mxCell id="iSMBCSXNsCC7iIjNtbEA-3" value="로그인" style="rounded=1;whiteSpace=wrap;html=1;arcSize=50;fillColor=#d5e8d4;strokeColor=#82b366;" vertex="1" parent="iSMBCSXNsCC7iIjNtbEA-33">
          <mxGeometry x="270" y="110" width="120" height="30" as="geometry" />
        </mxCell>
        <mxCell id="iSMBCSXNsCC7iIjNtbEA-16" value="≪include≫" style="html=1;verticalAlign=bottom;endArrow=open;dashed=1;endSize=8;curved=0;rounded=0;exitX=1;exitY=0.5;exitDx=0;exitDy=0;entryX=0;entryY=0.5;entryDx=0;entryDy=0;" edge="1" parent="iSMBCSXNsCC7iIjNtbEA-33" source="iSMBCSXNsCC7iIjNtbEA-5" target="iSMBCSXNsCC7iIjNtbEA-3">
          <mxGeometry relative="1" as="geometry">
            <mxPoint x="304" y="210" as="sourcePoint" />
            <mxPoint x="224" y="210" as="targetPoint" />
          </mxGeometry>
        </mxCell>
        <mxCell id="iSMBCSXNsCC7iIjNtbEA-36" value="≪include≫" style="html=1;verticalAlign=bottom;endArrow=open;dashed=1;endSize=8;curved=0;rounded=0;exitX=0.5;exitY=0;exitDx=0;exitDy=0;entryX=0.75;entryY=1;entryDx=0;entryDy=0;" edge="1" parent="iSMBCSXNsCC7iIjNtbEA-33" source="iSMBCSXNsCC7iIjNtbEA-10" target="iSMBCSXNsCC7iIjNtbEA-3">
          <mxGeometry relative="1" as="geometry">
            <mxPoint x="400" y="250" as="sourcePoint" />
            <mxPoint x="340" y="190" as="targetPoint" />
          </mxGeometry>
        </mxCell>
        <mxCell id="iSMBCSXNsCC7iIjNtbEA-1" value="User&lt;div&gt;&lt;br&gt;&lt;/div&gt;" style="shape=umlActor;verticalLabelPosition=bottom;verticalAlign=top;html=1;outlineConnect=0;" vertex="1" parent="1">
          <mxGeometry x="30" y="300" width="30" height="60" as="geometry" />
        </mxCell>
        <mxCell id="iSMBCSXNsCC7iIjNtbEA-6" value="게시글 수정" style="rounded=1;whiteSpace=wrap;html=1;arcSize=50;fillColor=#d5e8d4;strokeColor=#82b366;" vertex="1" parent="1">
          <mxGeometry x="280" y="380" width="120" height="30" as="geometry" />
        </mxCell>
        <mxCell id="iSMBCSXNsCC7iIjNtbEA-7" value="게시글 삭제" style="rounded=1;whiteSpace=wrap;html=1;arcSize=50;fillColor=#d5e8d4;strokeColor=#82b366;" vertex="1" parent="1">
          <mxGeometry x="440" y="380" width="120" height="30" as="geometry" />
        </mxCell>
        <mxCell id="iSMBCSXNsCC7iIjNtbEA-9" value="게시글 상세&lt;span style=&quot;background-color: initial;&quot;&gt;&amp;nbsp;조회&lt;/span&gt;" style="rounded=1;whiteSpace=wrap;html=1;arcSize=50;fillColor=#d5e8d4;strokeColor=#82b366;" vertex="1" parent="1">
          <mxGeometry x="360" y="450" width="120" height="30" as="geometry" />
        </mxCell>
        <mxCell id="iSMBCSXNsCC7iIjNtbEA-13" value="" style="endArrow=classic;html=1;rounded=0;entryX=0;entryY=0.5;entryDx=0;entryDy=0;exitX=1;exitY=0.3333333333333333;exitDx=0;exitDy=0;exitPerimeter=0;" edge="1" parent="1" source="iSMBCSXNsCC7iIjNtbEA-1" target="iSMBCSXNsCC7iIjNtbEA-5">
          <mxGeometry width="50" height="50" relative="1" as="geometry">
            <mxPoint x="120" y="260" as="sourcePoint" />
            <mxPoint x="480" y="330" as="targetPoint" />
          </mxGeometry>
        </mxCell>
        <mxCell id="iSMBCSXNsCC7iIjNtbEA-14" value="" style="endArrow=classic;html=1;rounded=0;exitX=1;exitY=0.3333333333333333;exitDx=0;exitDy=0;exitPerimeter=0;entryX=0;entryY=0.5;entryDx=0;entryDy=0;" edge="1" parent="1" source="iSMBCSXNsCC7iIjNtbEA-1" target="iSMBCSXNsCC7iIjNtbEA-4">
          <mxGeometry width="50" height="50" relative="1" as="geometry">
            <mxPoint x="430" y="380" as="sourcePoint" />
            <mxPoint x="180" y="180" as="targetPoint" />
          </mxGeometry>
        </mxCell>
        <mxCell id="iSMBCSXNsCC7iIjNtbEA-15" value="" style="endArrow=classic;html=1;rounded=0;entryX=0;entryY=0.25;entryDx=0;entryDy=0;exitX=1;exitY=0.3333333333333333;exitDx=0;exitDy=0;exitPerimeter=0;" edge="1" parent="1" source="iSMBCSXNsCC7iIjNtbEA-1" target="iSMBCSXNsCC7iIjNtbEA-8">
          <mxGeometry width="50" height="50" relative="1" as="geometry">
            <mxPoint x="110" y="260" as="sourcePoint" />
            <mxPoint x="140" y="340" as="targetPoint" />
          </mxGeometry>
        </mxCell>
        <mxCell id="iSMBCSXNsCC7iIjNtbEA-23" value="≪extend≫" style="html=1;verticalAlign=bottom;endArrow=open;dashed=1;endSize=8;curved=0;rounded=0;exitX=0;exitY=0.5;exitDx=0;exitDy=0;" edge="1" parent="1" source="iSMBCSXNsCC7iIjNtbEA-9" target="iSMBCSXNsCC7iIjNtbEA-8">
          <mxGeometry relative="1" as="geometry">
            <mxPoint x="120" y="554.5" as="sourcePoint" />
            <mxPoint x="40" y="554.5" as="targetPoint" />
          </mxGeometry>
        </mxCell>
        <mxCell id="iSMBCSXNsCC7iIjNtbEA-24" value="≪extend≫" style="html=1;verticalAlign=bottom;endArrow=open;dashed=1;endSize=8;curved=0;rounded=0;entryX=1;entryY=0.5;entryDx=0;entryDy=0;exitX=0;exitY=0.5;exitDx=0;exitDy=0;" edge="1" parent="1" source="iSMBCSXNsCC7iIjNtbEA-10" target="iSMBCSXNsCC7iIjNtbEA-9">
          <mxGeometry relative="1" as="geometry">
            <mxPoint x="580" y="430" as="sourcePoint" />
            <mxPoint x="310" y="500" as="targetPoint" />
          </mxGeometry>
        </mxCell>
        <mxCell id="iSMBCSXNsCC7iIjNtbEA-29" value="≪extend≫" style="html=1;verticalAlign=bottom;endArrow=open;dashed=1;endSize=8;curved=0;rounded=0;exitX=0.5;exitY=1;exitDx=0;exitDy=0;entryX=0.317;entryY=-0.067;entryDx=0;entryDy=0;entryPerimeter=0;" edge="1" parent="1" source="iSMBCSXNsCC7iIjNtbEA-6" target="iSMBCSXNsCC7iIjNtbEA-9">
          <mxGeometry relative="1" as="geometry">
            <mxPoint x="50" y="594" as="sourcePoint" />
            <mxPoint x="100" y="594" as="targetPoint" />
          </mxGeometry>
        </mxCell>
        <mxCell id="iSMBCSXNsCC7iIjNtbEA-30" value="≪extend≫" style="html=1;verticalAlign=bottom;endArrow=open;dashed=1;endSize=8;curved=0;rounded=0;exitX=0.5;exitY=1;exitDx=0;exitDy=0;entryX=0.75;entryY=0;entryDx=0;entryDy=0;" edge="1" parent="1" source="iSMBCSXNsCC7iIjNtbEA-7" target="iSMBCSXNsCC7iIjNtbEA-9">
          <mxGeometry relative="1" as="geometry">
            <mxPoint x="350" y="420" as="sourcePoint" />
            <mxPoint x="408" y="458" as="targetPoint" />
          </mxGeometry>
        </mxCell>
        <mxCell id="iSMBCSXNsCC7iIjNtbEA-31" value="≪include≫" style="html=1;verticalAlign=bottom;endArrow=open;dashed=1;endSize=8;curved=0;rounded=0;exitX=0.5;exitY=0;exitDx=0;exitDy=0;entryX=0.25;entryY=1;entryDx=0;entryDy=0;" edge="1" parent="1" source="iSMBCSXNsCC7iIjNtbEA-6" target="iSMBCSXNsCC7iIjNtbEA-3">
          <mxGeometry relative="1" as="geometry">
            <mxPoint x="50" y="594" as="sourcePoint" />
            <mxPoint x="100" y="594" as="targetPoint" />
          </mxGeometry>
        </mxCell>
        <mxCell id="iSMBCSXNsCC7iIjNtbEA-32" value="≪include≫" style="html=1;verticalAlign=bottom;endArrow=open;dashed=1;endSize=8;curved=0;rounded=0;exitX=0.5;exitY=0;exitDx=0;exitDy=0;entryX=0.5;entryY=1;entryDx=0;entryDy=0;" edge="1" parent="1" source="iSMBCSXNsCC7iIjNtbEA-7" target="iSMBCSXNsCC7iIjNtbEA-3">
          <mxGeometry relative="1" as="geometry">
            <mxPoint x="60" y="604" as="sourcePoint" />
            <mxPoint x="110" y="604" as="targetPoint" />
          </mxGeometry>
        </mxCell>
        <mxCell id="iSMBCSXNsCC7iIjNtbEA-35" value="가능한 단순한 게시판을 만드는 게 목표&lt;div&gt;ex) 마이페이지/관리자와 관련 기능 제공 X&lt;/div&gt;" style="text;html=1;align=right;verticalAlign=middle;whiteSpace=wrap;rounded=0;" vertex="1" parent="1">
          <mxGeometry x="480" y="600" width="230" height="30" as="geometry" />
        </mxCell>
      </root>
    </mxGraphModel>
  </diagram>
</mxfile>
